<?xml version="1.0" encoding="UTF-8"?><svg id="Capa_2" xmlns="http://www.w3.org/2000/svg" viewBox="0 0 300 178.04"><defs><style>.cls-1{fill:#f16808;}.cls-2{fill:#2d6684;}</style></defs><g id="Capa_1-2"><g><path class="cls-2" d="M119.7,56.23c-10.37,0-20.75-.09-31.12,.02-16.72,.18-30.24,12.87-32.09,29.97-1.7,15.72,9.48,31.06,25.34,34.58,2.67,.59,5.47,.8,8.21,.81,19.93,.07,39.85-.04,59.78,.06,21.88,.11,35.28,23.31,24.33,42.23-5.08,8.77-12.99,13.73-23.12,13.87-20.97,.29-41.95,.32-62.91,.03-14.72-.2-26.42-11.93-27-26.72-.31-7.94-2.08-15.23-7.1-21.47-6.61-8.23-15.26-12.32-25.85-12.58-11.45-.28-20.12-5.55-25.1-15.84-4.97-10.28-3.85-20.39,3.09-29.51,5.49-7.22,13.07-10.62,22.11-10.85,18.54-.47,32.16-13.73,32.64-32.34,.33-12.92,8.15-23.21,18.8-26.77,2.99-1,6.27-1.58,9.41-1.6C109.35-.01,129.57,.01,149.8,.07c12.7,.04,23.41,8.03,27.02,19.96,3.61,11.95-.92,24.51-11.47,31.58-4.58,3.07-9.66,4.61-15.2,4.61-10.15,0-20.3,0-30.45,0v.02Z"/><path class="cls-1" d="M300,29.11v.02c-.46,12.79-9.36,23.43-21.27,26.44-2.32,.59-4.73,.75-7.13,.73-.62,0-1.24,.01-1.85,.05-13.92,.77-26.6,11.23-29.75,25.46-.59,2.67-.8,5.47-.81,8.21-.07,19.93,.03,39.85-.07,59.78-.11,21.88-23.31,35.28-42.23,24.33-8.77-5.08-13.73-12.99-13.88-23.12-.29-20.97-.32-41.94-.03-62.91,.21-14.72,11.93-26.42,26.72-27,7.93-.31,15.23-2.08,21.47-7.1,7.62-6.12,11.7-14,12.46-23.55,.06-.75,.1-1.52,.12-2.3,.28-11.46,5.55-20.12,15.84-25.1C263.71,1.06,267.79,.05,271.8,0h.17c2.06-.01,4.09,.22,6.1,.72,.21,.05,.42,.1,.62,.15,.23,.06,.45,.12,.67,.19,3.34,1,6.6,2.71,9.74,5.1,2.48,1.89,4.51,4.02,6.12,6.37,.15,.22,.29,.43,.43,.65,.28,.43,.54,.87,.79,1.32,2.25,4.05,3.38,8.67,3.52,13.76,0,.28,.02,.56,.03,.85Z"/></g></g></svg>